<?xml version="1.0" encoding="UTF-8" standalone="no"?>
<!-- Created with Inkscape (http://www.inkscape.org/) -->

<svg
   xmlns:dc="http://purl.org/dc/elements/1.1/"
   xmlns:cc="http://creativecommons.org/ns#"
   xmlns:rdf="http://www.w3.org/1999/02/22-rdf-syntax-ns#"
   xmlns:svg="http://www.w3.org/2000/svg"
   xmlns="http://www.w3.org/2000/svg"
   xmlns:sodipodi="http://sodipodi.sourceforge.net/DTD/sodipodi-0.dtd"
   xmlns:inkscape="http://www.inkscape.org/namespaces/inkscape"
   width="295.35287"
   height="295.35287"
   viewBox="0 0 295.35286 295.3529"
   version="1.1"
   id="svg2216"
   inkscape:version="0.92.3 (2405546, 2018-03-11)"
   sodipodi:docname="scrabble-letter-C.svg">
  <defs
     id="defs2210" />
  <sodipodi:namedview
     id="base"
     pagecolor="#ffffff"
     bordercolor="#666666"
     borderopacity="1.0"
     inkscape:pageopacity="0.0"
     inkscape:pageshadow="2"
     inkscape:zoom="0.7"
     inkscape:cx="194.8771"
     inkscape:cy="-3.927351"
     inkscape:document-units="px"
     inkscape:current-layer="layer1"
     showgrid="false"
     units="px"
     inkscape:window-width="1280"
     inkscape:window-height="737"
     inkscape:window-x="-8"
     inkscape:window-y="-8"
     inkscape:window-maximized="1"
     fit-margin-top="5"
     fit-margin-left="5"
     fit-margin-bottom="5"
     fit-margin-right="5"
     inkscape:showpageshadow="false" />
  <metadata
     id="metadata2213">
    <rdf:RDF>
      <cc:Work
         rdf:about="">
        <dc:format>image/svg+xml</dc:format>
        <dc:type
           rdf:resource="http://purl.org/dc/dcmitype/StillImage" />
        <dc:title></dc:title>
      </cc:Work>
    </rdf:RDF>
  </metadata>
  <g
     inkscape:label="Layer 1"
     inkscape:groupmode="layer"
     id="layer1"
     transform="translate(85.792198,-28.029976)">
    <g
       id="g17">
      <rect
         ry="9.6428576"
         rx="9.6428576"
         y="33.779976"
         x="-80.042198"
         height="283.85287"
         width="283.85287"
         id="rect842"
         style="opacity:1;fill:#e0d3b2;fill-opacity:1;stroke:#000000;stroke-width:1.5;stroke-linecap:round;stroke-linejoin:round;stroke-miterlimit:4;stroke-dasharray:none;stroke-dashoffset:0;stroke-opacity:1;paint-order:stroke fill markers" />
      <g
         transform="translate(-10,-6)"
         id="text828"
         style="font-style:normal;font-variant:normal;font-weight:bold;font-stretch:normal;font-size:76.53333282px;line-height:1.25;font-family:'Open Sans';-inkscape-font-specification:'Open Sans, Bold';font-variant-ligatures:normal;font-variant-caps:normal;font-variant-numeric:normal;font-feature-settings:normal;text-align:start;letter-spacing:0px;word-spacing:0px;writing-mode:lr-tb;text-anchor:start;fill:#000000;fill-opacity:1;stroke:none"
         aria-label="C">
        <path
           inkscape:connector-curvature="0"
           id="path817"
           style="font-style:normal;font-variant:normal;font-weight:600;font-stretch:normal;font-size:233.33332825px;font-family:'Open Sans';-inkscape-font-specification:'Open Sans Semi-Bold'"
           d="m 77.606896,113.72724 q -23.470052,0 -36.914062,16.63411 -13.44401,16.63412 -13.44401,45.91471 0,30.64779 12.874349,46.37045 12.98828,15.72265 37.483723,15.72265 10.595703,0 20.507812,-2.05078 9.912112,-2.16471 20.621742,-5.46875 v 23.35612 q -19.596352,7.4056 -44.433591,7.4056 -36.572265,0 -56.168618,-22.10287 -19.596354,-22.21679 -19.596354,-63.46028 0,-25.97656 9.45638,-45.45898 9.570312,-19.48243 27.571614,-29.85026 18.001302,-10.367842 42.268879,-10.367842 25.52083,0 47.16797,10.709632 l -9.79818,22.67253 q -8.43099,-3.98763 -17.887368,-6.94987 -9.342448,-3.07617 -19.710286,-3.07617 z" />
      </g>
      <g
         id="text836"
         style="font-style:normal;font-variant:normal;font-weight:bold;font-stretch:normal;font-size:68.36787415px;line-height:1.25;font-family:'Open Sans';-inkscape-font-specification:'Open Sans, Bold';font-variant-ligatures:normal;font-variant-caps:normal;font-variant-numeric:normal;font-feature-settings:normal;text-align:start;letter-spacing:0px;word-spacing:0px;writing-mode:lr-tb;text-anchor:start;fill:#000000;fill-opacity:1;stroke:none;stroke-width:0.89330852"
         transform="matrix(1.1194341,0,0,0.89330851,-20,-6)"
         aria-label="3">
        <path
           inkscape:connector-curvature="0"
           id="path820"
           style="font-style:normal;font-variant:normal;font-weight:600;font-stretch:normal;font-family:'Open Sans';-inkscape-font-specification:'Open Sans Semi-Bold';stroke-width:0.89330852"
           d="m 165.55531,295.30684 q 0,4.6402 -2.704,7.74479 -2.704,3.07122 -7.61127,4.13946 v 0.26707 q 5.87537,0.73442 8.81305,3.6721 2.93768,2.9043 2.93768,7.7448 0,7.04376 -4.97403,10.88277 -4.97403,3.80564 -14.15428,3.80564 -8.11201,0 -13.68693,-2.63724 v -6.97699 q 3.10459,1.5356 6.5764,2.37017 3.47181,0.83457 6.67655,0.83457 5.67507,0 8.47922,-2.10311 2.80415,-2.10312 2.80415,-6.50964 0,-3.90578 -3.1046,-5.74183 -3.10459,-1.83605 -9.74776,-1.83605 h -4.23961 v -6.37611 h 4.30638 q 11.68396,0 11.68396,-8.07863 0,-3.13797 -2.03635,-4.84049 -2.03635,-1.70252 -6.00889,-1.70252 -2.77077,0 -5.34124,0.80118 -2.57048,0.7678 -6.07566,3.03783 l -3.83902,-5.47477 q 6.70993,-4.94065 15.58974,-4.94065 7.37759,0 11.51705,3.17136 4.13946,3.17137 4.13946,8.74629 z" />
      </g>
    </g>
  </g>
</svg>
