<?xml version="1.0" encoding="UTF-8" standalone="no"?>
<!-- Created with Inkscape (http://www.inkscape.org/) -->

<svg
   xmlns:dc="http://purl.org/dc/elements/1.1/"
   xmlns:cc="http://creativecommons.org/ns#"
   xmlns:rdf="http://www.w3.org/1999/02/22-rdf-syntax-ns#"
   xmlns:svg="http://www.w3.org/2000/svg"
   xmlns="http://www.w3.org/2000/svg"
   xmlns:sodipodi="http://sodipodi.sourceforge.net/DTD/sodipodi-0.dtd"
   xmlns:inkscape="http://www.inkscape.org/namespaces/inkscape"
   width="295.35287"
   height="295.35287"
   viewBox="0 0 295.35286 295.3529"
   version="1.1"
   id="svg2216"
   inkscape:version="0.92.3 (2405546, 2018-03-11)"
   sodipodi:docname="scrabble-letter-G.svg">
  <defs
     id="defs2210" />
  <sodipodi:namedview
     id="base"
     pagecolor="#ffffff"
     bordercolor="#666666"
     borderopacity="1.0"
     inkscape:pageopacity="0.0"
     inkscape:pageshadow="2"
     inkscape:zoom="0.70000001"
     inkscape:cx="165.4875"
     inkscape:cy="134.57483"
     inkscape:document-units="px"
     inkscape:current-layer="layer1"
     showgrid="false"
     units="px"
     inkscape:window-width="1280"
     inkscape:window-height="737"
     inkscape:window-x="-8"
     inkscape:window-y="-8"
     inkscape:window-maximized="1"
     fit-margin-top="5"
     fit-margin-left="5"
     fit-margin-bottom="5"
     fit-margin-right="5"
     inkscape:showpageshadow="false" />
  <metadata
     id="metadata2213">
    <rdf:RDF>
      <cc:Work
         rdf:about="">
        <dc:format>image/svg+xml</dc:format>
        <dc:type
           rdf:resource="http://purl.org/dc/dcmitype/StillImage" />
        <dc:title></dc:title>
      </cc:Work>
    </rdf:RDF>
  </metadata>
  <g
     inkscape:label="Layer 1"
     inkscape:groupmode="layer"
     id="layer1"
     transform="translate(85.792198,-28.029976)">
    <g
       id="g23">
      <rect
         ry="9.5333147"
         rx="9.5333147"
         y="33.779976"
         x="-80.042198"
         height="283.85287"
         width="283.85287"
         id="rect842"
         style="opacity:1;fill:#e0d3b2;fill-opacity:1;stroke:#000000;stroke-width:1.5;stroke-linecap:round;stroke-linejoin:round;stroke-miterlimit:4;stroke-dasharray:none;stroke-dashoffset:0;stroke-opacity:1;paint-order:stroke fill markers" />
      <g
         transform="translate(-10,-6)"
         id="text828"
         style="font-style:normal;font-variant:normal;font-weight:bold;font-stretch:normal;font-size:76.53333282px;line-height:1.25;font-family:'Open Sans';-inkscape-font-specification:'Open Sans, Bold';font-variant-ligatures:normal;font-variant-caps:normal;font-variant-numeric:normal;font-feature-settings:normal;text-align:start;letter-spacing:0px;word-spacing:0px;writing-mode:lr-tb;text-anchor:start;fill:#000000;fill-opacity:1;stroke:none"
         aria-label="G">
        <path
           inkscape:connector-curvature="0"
           id="path817"
           style="font-style:normal;font-variant:normal;font-weight:600;font-stretch:normal;font-size:233.33332825px;font-family:'Open Sans';-inkscape-font-specification:'Open Sans Semi-Bold'"
           d="m 69.40377,168.9844 h 61.29557 v 83.6263 q -15.03906,4.89909 -28.9388,6.94987 -13.785807,2.05078 -29.85026,2.05078 -37.82552,0 -58.333332,-22.33073 -20.507812,-22.44466 -20.507812,-63.23242 0,-40.2181 23.128255,-62.89062 23.128254,-22.786462 63.688149,-22.786462 26.09049,0 49.44661,10.026042 l -9.57031,22.67252 q -20.279946,-9.34244 -40.559893,-9.34244 -26.660156,0 -42.154947,16.74804 -15.494792,16.74805 -15.494792,45.80078 0,30.53386 13.89974,46.48438 14.013671,15.83659 40.218098,15.83659 13.216145,0 28.255204,-3.30404 V 192.34052 H 69.40377 Z" />
      </g>
      <g
         id="text836"
         style="font-style:normal;font-variant:normal;font-weight:bold;font-stretch:normal;font-size:68.36787415px;line-height:1.25;font-family:'Open Sans';-inkscape-font-specification:'Open Sans, Bold';font-variant-ligatures:normal;font-variant-caps:normal;font-variant-numeric:normal;font-feature-settings:normal;text-align:start;letter-spacing:0px;word-spacing:0px;writing-mode:lr-tb;text-anchor:start;fill:#000000;fill-opacity:1;stroke:none;stroke-width:0.89330852"
         transform="matrix(1.1194341,0,0,0.89330851,-16,-6)"
         aria-label="2">
        <path
           inkscape:connector-curvature="0"
           id="path820"
           style="font-style:normal;font-variant:normal;font-weight:600;font-stretch:normal;font-family:'Open Sans';-inkscape-font-specification:'Open Sans Semi-Bold';stroke-width:0.89330852"
           d="M 170.96461,332.89581 H 137.8823 v -5.94213 l 12.5853,-12.65206 q 5.57492,-5.70845 7.37759,-8.07863 1.83605,-2.40355 2.67062,-4.50667 0.83456,-2.10311 0.83456,-4.50667 0,-3.30489 -2.00296,-5.20771 -1.96958,-1.90281 -5.47477,-1.90281 -2.80415,0 -5.44139,1.03486 -2.60385,1.03487 -6.04228,3.73887 l -4.23961,-5.17433 q 4.0727,-3.43842 7.91171,-4.87388 3.83902,-1.43546 8.17878,-1.43546 6.81008,0 10.91616,3.57196 4.10608,3.53857 4.10608,9.54746 0,3.3049 -1.20178,6.27596 -1.1684,2.97107 -3.63872,6.14243 -2.43694,3.13798 -8.14539,8.5126 l -8.47922,8.21216 v 0.33382 h 23.16763 z" />
      </g>
    </g>
  </g>
</svg>
