<?xml version="1.0" encoding="UTF-8" standalone="no"?>
<!-- Created with Inkscape (http://www.inkscape.org/) -->

<svg
   xmlns:dc="http://purl.org/dc/elements/1.1/"
   xmlns:cc="http://creativecommons.org/ns#"
   xmlns:rdf="http://www.w3.org/1999/02/22-rdf-syntax-ns#"
   xmlns:svg="http://www.w3.org/2000/svg"
   xmlns="http://www.w3.org/2000/svg"
   xmlns:sodipodi="http://sodipodi.sourceforge.net/DTD/sodipodi-0.dtd"
   xmlns:inkscape="http://www.inkscape.org/namespaces/inkscape"
   width="295.35287"
   height="295.35287"
   viewBox="0 0 295.35286 295.3529"
   version="1.1"
   id="svg2216"
   inkscape:version="0.92.3 (2405546, 2018-03-11)"
   sodipodi:docname="scrabble-letter-M.svg">
  <defs
     id="defs2210" />
  <sodipodi:namedview
     id="base"
     pagecolor="#ffffff"
     bordercolor="#666666"
     borderopacity="1.0"
     inkscape:pageopacity="0.0"
     inkscape:pageshadow="2"
     inkscape:zoom="0.7"
     inkscape:cx="162.58341"
     inkscape:cy="31.756091"
     inkscape:document-units="px"
     inkscape:current-layer="layer1"
     showgrid="false"
     units="px"
     inkscape:window-width="1280"
     inkscape:window-height="737"
     inkscape:window-x="-8"
     inkscape:window-y="-8"
     inkscape:window-maximized="1"
     fit-margin-top="5"
     fit-margin-left="5"
     fit-margin-bottom="5"
     fit-margin-right="5"
     inkscape:showpageshadow="false" />
  <metadata
     id="metadata2213">
    <rdf:RDF>
      <cc:Work
         rdf:about="">
        <dc:format>image/svg+xml</dc:format>
        <dc:type
           rdf:resource="http://purl.org/dc/dcmitype/StillImage" />
        <dc:title></dc:title>
      </cc:Work>
    </rdf:RDF>
  </metadata>
  <g
     inkscape:label="Layer 1"
     inkscape:groupmode="layer"
     id="layer1"
     transform="translate(85.792198,-28.029976)">
    <g
       id="g23">
      <rect
         ry="9.5535717"
         rx="9.5535717"
         y="33.779976"
         x="-80.042198"
         height="283.85287"
         width="283.85287"
         id="rect842"
         style="opacity:1;fill:#e0d3b2;fill-opacity:1;stroke:#000000;stroke-width:1.5;stroke-linecap:round;stroke-linejoin:round;stroke-miterlimit:4;stroke-dasharray:none;stroke-dashoffset:0;stroke-opacity:1;paint-order:stroke fill markers" />
      <g
         id="text828"
         style="font-style:normal;font-variant:normal;font-weight:bold;font-stretch:normal;font-size:71.88333893px;line-height:1.25;font-family:'Open Sans';-inkscape-font-specification:'Open Sans, Bold';font-variant-ligatures:normal;font-variant-caps:normal;font-variant-numeric:normal;font-feature-settings:normal;text-align:start;letter-spacing:0px;word-spacing:0px;writing-mode:lr-tb;text-anchor:start;fill:#000000;fill-opacity:1;stroke:none;stroke-width:0.93924224"
         transform="matrix(0.93924228,0,0,1.064688,-10,-6)"
         aria-label="M">
        <path
           inkscape:connector-curvature="0"
           id="path817"
           style="font-style:normal;font-variant:normal;font-weight:600;font-stretch:normal;font-size:219.15652466px;font-family:'Open Sans';-inkscape-font-specification:'Open Sans Semi-Bold';stroke-width:0.93924224"
           d="M 52.992702,243.57623 7.6204533,112.917 H 6.7643731 q 1.8191703,29.10672 1.8191703,54.57511 v 76.08412 H -14.637631 V 87.127581 H 21.424746 L 64.870815,211.58024 h 0.64206 L 110.24306,87.127581 h 36.16939 V 243.57623 h -24.6123 v -77.36824 q 0,-11.6641 0.53505,-30.39085 0.64206,-18.72675 1.0701,-22.68612 h -0.85608 L 75.571817,243.57623 Z" />
      </g>
      <g
         id="text836"
         style="font-style:normal;font-variant:normal;font-weight:bold;font-stretch:normal;font-size:68.36787415px;line-height:1.25;font-family:'Open Sans';-inkscape-font-specification:'Open Sans, Bold';font-variant-ligatures:normal;font-variant-caps:normal;font-variant-numeric:normal;font-feature-settings:normal;text-align:start;letter-spacing:0px;word-spacing:0px;writing-mode:lr-tb;text-anchor:start;fill:#000000;fill-opacity:1;stroke:none;stroke-width:0.89330852"
         transform="matrix(1.1194341,0,0,0.89330851,-10,-6)"
         aria-label="3">
        <path
           inkscape:connector-curvature="0"
           id="path820"
           style="font-style:normal;font-variant:normal;font-weight:600;font-stretch:normal;font-family:'Open Sans';-inkscape-font-specification:'Open Sans Semi-Bold';stroke-width:0.89330852"
           d="m 167.34193,295.30684 q 0,4.6402 -2.704,7.74479 -2.704,3.07122 -7.61127,4.13946 v 0.26707 q 5.87537,0.73442 8.81305,3.6721 2.93768,2.9043 2.93768,7.7448 0,7.04376 -4.97403,10.88277 -4.97403,3.80564 -14.15428,3.80564 -8.11201,0 -13.68693,-2.63724 v -6.97699 q 3.10459,1.5356 6.5764,2.37017 3.47181,0.83457 6.67655,0.83457 5.67507,0 8.47922,-2.10311 2.80415,-2.10312 2.80415,-6.50964 0,-3.90578 -3.10459,-5.74183 -3.1046,-1.83605 -9.74777,-1.83605 h -4.23961 v -6.37611 h 4.30638 q 11.68396,0 11.68396,-8.07863 0,-3.13797 -2.03635,-4.84049 -2.03635,-1.70252 -6.00889,-1.70252 -2.77077,0 -5.34124,0.80118 -2.57047,0.7678 -6.07566,3.03783 l -3.83902,-5.47477 q 6.70993,-4.94065 15.58974,-4.94065 7.37759,0 11.51705,3.17136 4.13946,3.17137 4.13946,8.74629 z" />
      </g>
    </g>
  </g>
</svg>
