<?xml version="1.0" encoding="UTF-8" standalone="no"?>
<!-- Created with Inkscape (http://www.inkscape.org/) -->

<svg
   xmlns:dc="http://purl.org/dc/elements/1.1/"
   xmlns:cc="http://creativecommons.org/ns#"
   xmlns:rdf="http://www.w3.org/1999/02/22-rdf-syntax-ns#"
   xmlns:svg="http://www.w3.org/2000/svg"
   xmlns="http://www.w3.org/2000/svg"
   xmlns:sodipodi="http://sodipodi.sourceforge.net/DTD/sodipodi-0.dtd"
   xmlns:inkscape="http://www.inkscape.org/namespaces/inkscape"
   width="295.35287"
   height="295.35287"
   viewBox="0 0 295.35286 295.3529"
   version="1.1"
   id="svg2216"
   inkscape:version="0.92.3 (2405546, 2018-03-11)"
   sodipodi:docname="scrabble-letter-P.svg">
  <defs
     id="defs2210" />
  <sodipodi:namedview
     id="base"
     pagecolor="#ffffff"
     bordercolor="#666666"
     borderopacity="1.0"
     inkscape:pageopacity="0.0"
     inkscape:pageshadow="2"
     inkscape:zoom="0.7"
     inkscape:cx="225.10462"
     inkscape:cy="115.99304"
     inkscape:document-units="px"
     inkscape:current-layer="layer1"
     showgrid="false"
     units="px"
     inkscape:window-width="1280"
     inkscape:window-height="737"
     inkscape:window-x="-8"
     inkscape:window-y="-8"
     inkscape:window-maximized="1"
     fit-margin-top="5"
     fit-margin-left="5"
     fit-margin-bottom="5"
     fit-margin-right="5"
     inkscape:showpageshadow="false" />
  <metadata
     id="metadata2213">
    <rdf:RDF>
      <cc:Work
         rdf:about="">
        <dc:format>image/svg+xml</dc:format>
        <dc:type
           rdf:resource="http://purl.org/dc/dcmitype/StillImage" />
        <dc:title></dc:title>
      </cc:Work>
    </rdf:RDF>
  </metadata>
  <g
     inkscape:label="Layer 1"
     inkscape:groupmode="layer"
     id="layer1"
     transform="translate(85.792198,-28.029976)">
    <g
       id="g835">
      <rect
         ry="9.6428576"
         rx="9.6428576"
         y="33.779976"
         x="-80.042198"
         height="283.85287"
         width="283.85287"
         id="rect842"
         style="opacity:1;fill:#e0d3b2;fill-opacity:1;stroke:#000000;stroke-width:1.5;stroke-linecap:round;stroke-linejoin:round;stroke-miterlimit:4;stroke-dasharray:none;stroke-dashoffset:0;stroke-opacity:1;paint-order:stroke fill markers" />
      <g
         transform="translate(0,-6)"
         id="text828"
         style="font-style:normal;font-variant:normal;font-weight:bold;font-stretch:normal;font-size:76.53333282px;line-height:1.25;font-family:'Open Sans';-inkscape-font-specification:'Open Sans, Bold';font-variant-ligatures:normal;font-variant-caps:normal;font-variant-numeric:normal;font-feature-settings:normal;text-align:start;letter-spacing:0px;word-spacing:0px;writing-mode:lr-tb;text-anchor:start;fill:#000000;fill-opacity:1;stroke:none"
         aria-label="P">
        <path
           inkscape:connector-curvature="0"
           id="path817"
           style="font-style:normal;font-variant:normal;font-weight:600;font-stretch:normal;font-size:233.33332825px;font-family:'Open Sans';-inkscape-font-specification:'Open Sans Semi-Bold'"
           d="m 117.02747,143.12177 q 0,26.09049 -17.089846,39.99023 -17.089843,13.89974 -48.649087,13.89974 H 33.970829 V 259.3327 H 6.7410118 V 92.763696 H 54.706506 q 31.217447,0 46.712234,12.760414 15.60873,12.76042 15.60873,37.59766 z M 33.970829,174.11135 H 48.44023 q 20.963541,0 30.761718,-7.29167 9.798177,-7.29166 9.798177,-22.78645 0,-14.35547 -8.772787,-21.41927 -8.772786,-7.06381 -27.343749,-7.06381 h -18.91276 z" />
      </g>
      <g
         id="text836"
         style="font-style:normal;font-variant:normal;font-weight:bold;font-stretch:normal;font-size:68.36787415px;line-height:1.25;font-family:'Open Sans';-inkscape-font-specification:'Open Sans, Bold';font-variant-ligatures:normal;font-variant-caps:normal;font-variant-numeric:normal;font-feature-settings:normal;text-align:start;letter-spacing:0px;word-spacing:0px;writing-mode:lr-tb;text-anchor:start;fill:#000000;fill-opacity:1;stroke:none;stroke-width:0.89330852"
         transform="matrix(1.1194341,0,0,0.89330851,0,-6)"
         aria-label="3">
        <path
           inkscape:connector-curvature="0"
           id="path820"
           style="font-style:normal;font-variant:normal;font-weight:600;font-stretch:normal;font-family:'Open Sans';-inkscape-font-specification:'Open Sans Semi-Bold';stroke-width:0.89330852"
           d="m 104.81046,295.30684 q 0,4.6402 -2.704,7.74479 -2.704002,3.07122 -7.611266,4.13946 v 0.26707 q 5.875366,0.73442 8.813046,3.6721 2.93768,2.9043 2.93768,7.7448 0,7.04376 -4.97403,10.88277 -4.974028,3.80564 -14.154284,3.80564 -8.112009,0 -13.686928,-2.63724 v -6.97699 q 3.104595,1.5356 6.576402,2.37017 3.471806,0.83457 6.67655,0.83457 5.675067,0 8.479219,-2.10311 2.804151,-2.10312 2.804151,-6.50964 0,-3.90578 -3.104596,-5.74183 -3.104596,-1.83605 -9.747763,-1.83605 h -4.23961 v -6.37611 h 4.306375 q 11.683963,0 11.683963,-8.07863 0,-3.13797 -2.036348,-4.84049 -2.036348,-1.70252 -6.008895,-1.70252 -2.770768,0 -5.34124,0.80118 -2.570472,0.7678 -6.075661,3.03783 l -3.839016,-5.47477 q 6.709933,-4.94065 15.589744,-4.94065 7.377588,0 11.517047,3.17136 4.13946,3.17137 4.13946,8.74629 z" />
      </g>
    </g>
    <g
       id="g861">
      <rect
         style="opacity:1;fill:#e0d3b2;fill-opacity:1;stroke:#000000;stroke-width:1.5;stroke-linecap:round;stroke-linejoin:round;stroke-miterlimit:4;stroke-dasharray:none;stroke-dashoffset:0;stroke-opacity:1;paint-order:stroke fill markers"
         id="rect851"
         width="283.85287"
         height="283.85287"
         x="-80.042198"
         y="33.779976"
         rx="9.6428576"
         ry="9.6428576" />
      <g
         aria-label="P"
         style="font-style:normal;font-variant:normal;font-weight:bold;font-stretch:normal;font-size:76.53333282px;line-height:1.25;font-family:'Open Sans';-inkscape-font-specification:'Open Sans, Bold';font-variant-ligatures:normal;font-variant-caps:normal;font-variant-numeric:normal;font-feature-settings:normal;text-align:start;letter-spacing:0px;word-spacing:0px;writing-mode:lr-tb;text-anchor:start;fill:#000000;fill-opacity:1;stroke:none"
         id="g855"
         transform="translate(0,-6)">
        <path
           d="m 117.02747,143.12177 q 0,26.09049 -17.089846,39.99023 -17.089843,13.89974 -48.649087,13.89974 H 33.970829 V 259.3327 H 6.7410118 V 92.763696 H 54.706506 q 31.217447,0 46.712234,12.760414 15.60873,12.76042 15.60873,37.59766 z M 33.970829,174.11135 H 48.44023 q 20.963541,0 30.761718,-7.29167 9.798177,-7.29166 9.798177,-22.78645 0,-14.35547 -8.772787,-21.41927 -8.772786,-7.06381 -27.343749,-7.06381 h -18.91276 z"
           style="font-style:normal;font-variant:normal;font-weight:600;font-stretch:normal;font-size:233.33332825px;font-family:'Open Sans';-inkscape-font-specification:'Open Sans Semi-Bold'"
           id="path853"
           inkscape:connector-curvature="0" />
      </g>
      <g
         aria-label="3"
         transform="matrix(1.1194341,0,0,0.89330851,0,-6)"
         style="font-style:normal;font-variant:normal;font-weight:bold;font-stretch:normal;font-size:68.36787415px;line-height:1.25;font-family:'Open Sans';-inkscape-font-specification:'Open Sans, Bold';font-variant-ligatures:normal;font-variant-caps:normal;font-variant-numeric:normal;font-feature-settings:normal;text-align:start;letter-spacing:0px;word-spacing:0px;writing-mode:lr-tb;text-anchor:start;fill:#000000;fill-opacity:1;stroke:none;stroke-width:0.89330852"
         id="g859">
        <path
           d="m 104.81046,295.30684 q 0,4.6402 -2.704,7.74479 -2.704002,3.07122 -7.611266,4.13946 v 0.26707 q 5.875366,0.73442 8.813046,3.6721 2.93768,2.9043 2.93768,7.7448 0,7.04376 -4.97403,10.88277 -4.974028,3.80564 -14.154284,3.80564 -8.112009,0 -13.686928,-2.63724 v -6.97699 q 3.104595,1.5356 6.576402,2.37017 3.471806,0.83457 6.67655,0.83457 5.675067,0 8.479219,-2.10311 2.804151,-2.10312 2.804151,-6.50964 0,-3.90578 -3.104596,-5.74183 -3.104596,-1.83605 -9.747763,-1.83605 h -4.23961 v -6.37611 h 4.306375 q 11.683963,0 11.683963,-8.07863 0,-3.13797 -2.036348,-4.84049 -2.036348,-1.70252 -6.008895,-1.70252 -2.770768,0 -5.34124,0.80118 -2.570472,0.7678 -6.075661,3.03783 l -3.839016,-5.47477 q 6.709933,-4.94065 15.589744,-4.94065 7.377588,0 11.517047,3.17136 4.13946,3.17137 4.13946,8.74629 z"
           style="font-style:normal;font-variant:normal;font-weight:600;font-stretch:normal;font-family:'Open Sans';-inkscape-font-specification:'Open Sans Semi-Bold';stroke-width:0.89330852"
           id="path857"
           inkscape:connector-curvature="0" />
      </g>
    </g>
  </g>
</svg>
