<?xml version="1.0" encoding="UTF-8" standalone="no"?>
<!-- Created with Inkscape (http://www.inkscape.org/) -->

<svg
   xmlns:dc="http://purl.org/dc/elements/1.1/"
   xmlns:cc="http://creativecommons.org/ns#"
   xmlns:rdf="http://www.w3.org/1999/02/22-rdf-syntax-ns#"
   xmlns:svg="http://www.w3.org/2000/svg"
   xmlns="http://www.w3.org/2000/svg"
   xmlns:sodipodi="http://sodipodi.sourceforge.net/DTD/sodipodi-0.dtd"
   xmlns:inkscape="http://www.inkscape.org/namespaces/inkscape"
   width="295.35287"
   height="295.35287"
   viewBox="0 0 295.35286 295.3529"
   version="1.1"
   id="svg2216"
   inkscape:version="0.92.3 (2405546, 2018-03-11)"
   sodipodi:docname="scrabble-letter-Q.svg">
  <defs
     id="defs2210" />
  <sodipodi:namedview
     id="base"
     pagecolor="#ffffff"
     bordercolor="#666666"
     borderopacity="1.0"
     inkscape:pageopacity="0.0"
     inkscape:pageshadow="2"
     inkscape:zoom="0.24748737"
     inkscape:cx="255.8168"
     inkscape:cy="201.79045"
     inkscape:document-units="px"
     inkscape:current-layer="layer1"
     showgrid="false"
     units="px"
     inkscape:window-width="1280"
     inkscape:window-height="737"
     inkscape:window-x="-8"
     inkscape:window-y="-8"
     inkscape:window-maximized="1"
     fit-margin-top="5"
     fit-margin-left="5"
     fit-margin-bottom="5"
     fit-margin-right="5"
     inkscape:showpageshadow="false" />
  <metadata
     id="metadata2213">
    <rdf:RDF>
      <cc:Work
         rdf:about="">
        <dc:format>image/svg+xml</dc:format>
        <dc:type
           rdf:resource="http://purl.org/dc/dcmitype/StillImage" />
        <dc:title></dc:title>
      </cc:Work>
    </rdf:RDF>
  </metadata>
  <g
     inkscape:label="Layer 1"
     inkscape:groupmode="layer"
     id="layer1"
     transform="translate(85.792198,-28.029976)">
    <g
       id="g824">
      <rect
         ry="9.5982141"
         rx="9.5982141"
         y="33.779976"
         x="-80.042198"
         height="283.85287"
         width="283.85287"
         id="rect842"
         style="opacity:1;fill:#e0d3b2;fill-opacity:1;stroke:#000000;stroke-width:1.5;stroke-linecap:round;stroke-linejoin:round;stroke-miterlimit:4;stroke-dasharray:none;stroke-dashoffset:0;stroke-opacity:1;paint-order:stroke fill markers" />
      <g
         id="text828"
         style="font-style:normal;font-variant:normal;font-weight:bold;font-stretch:normal;font-size:72.03674316px;line-height:1.25;font-family:Arial;-inkscape-font-specification:'Arial Bold';font-variant-ligatures:normal;font-variant-caps:normal;font-variant-numeric:normal;font-feature-settings:normal;text-align:start;letter-spacing:0px;word-spacing:0px;writing-mode:lr-tb;text-anchor:start;fill:#000000;fill-opacity:1;stroke:none;stroke-width:0.94124663"
         transform="matrix(0.94124672,0,0,1.0624207,0,-6)"
         aria-label="Q">
        <path
           sodipodi:nodetypes="ccccscscscsccccscscscscccc"
           inkscape:connector-curvature="0"
           id="path817"
           style="font-style:normal;font-variant:normal;font-weight:bold;font-stretch:normal;font-size:219.6242218px;font-family:Arial;-inkscape-font-specification:'Arial Bold';stroke-width:0.94124663"
           d="m 89.779387,224.1497 c 7.244543,4.80561 7.357278,4.97672 15.603763,9.79848 l -16.95983,18.85255 c -9.541092,-6.03096 -11.515054,-7.01737 -20.091611,-12.77975 -10.294885,4.50401 -21.697901,6.75602 -34.209046,6.75602 -24.1643839,0 -43.1098329,-7.11348 -56.836347,-21.34044 -13.655021,-14.22696 -20.482532,-34.20905 -20.482532,-59.94626 0,-25.66572 6.863257,-45.61206 20.589771,-59.83902 C -8.8799313,91.352827 9.7438023,84.2036 33.264756,84.2036 c 23.306477,0 41.787226,7.149227 55.442247,21.44768 13.655027,14.22696 20.482537,34.1733 20.482537,59.83902 0,13.58353 -1.89455,25.52273 -5.68364,35.81762 -2.85969,7.86415 -7.435194,15.47807 -13.726513,22.84178 z M 64.25665,206.24089 c 4.075059,-4.78998 7.11348,-10.58085 9.115263,-17.37262 2.073276,-6.79177 3.109914,-14.58442 3.109914,-23.37797 0,-18.15903 -4.003567,-31.70682 -12.0107,-40.64335 -8.007133,-9.00803 -18.480749,-13.51204 -31.420848,-13.51204 -12.940099,0 -23.4494615,4.50401 -31.5280866,13.51204 -8.0071329,9.00803 -12.0106994,22.55581 -12.0106994,40.64335 0,18.37351 4.0035665,32.13577 12.0106994,41.28678 8.0786251,9.07951 18.2662716,13.61927 30.5629406,13.61927 4.575505,0 8.900787,-0.75067 12.975846,-2.252 -6.434304,-4.21805 -10.319794,-7.84285 -16.589138,-12.05097 l 14.592326,-15.09785 c 8.54069,5.67561 11.684012,8.09613 21.192483,15.24536 z" />
      </g>
      <g
         id="text836"
         style="font-style:normal;font-variant:normal;font-weight:bold;font-stretch:normal;font-size:68.36787415px;line-height:1.25;font-family:'Open Sans';-inkscape-font-specification:'Open Sans, Bold';font-variant-ligatures:normal;font-variant-caps:normal;font-variant-numeric:normal;font-feature-settings:normal;text-align:start;letter-spacing:0px;word-spacing:0px;writing-mode:lr-tb;text-anchor:start;fill:#000000;fill-opacity:1;stroke:none;stroke-width:0.89330852"
         transform="matrix(1.1194341,0,0,0.89330851,0,-6)"
         aria-label="10">
        <path
           inkscape:connector-curvature="0"
           id="path820"
           style="font-style:normal;font-variant:normal;font-weight:600;font-stretch:normal;font-family:'Open Sans';-inkscape-font-specification:'Open Sans Semi-Bold';letter-spacing:-7.64000273px;stroke-width:0.89330852"
           d="m 128.4308,333.00949 h -7.84495 v -31.51332 q 0,-5.64168 0.26706,-8.94657 -0.7678,0.80118 -1.90282,1.76928 -1.10163,0.9681 -7.47773,6.14243 l -3.93917,-4.97403 14.35459,-11.28337 h 6.54302 z" />
        <path
           inkscape:connector-curvature="0"
           id="path822"
           style="font-style:normal;font-variant:normal;font-weight:600;font-stretch:normal;font-family:'Open Sans';-inkscape-font-specification:'Open Sans Semi-Bold';letter-spacing:-7.64000273px;stroke-width:0.89330852"
           d="m 169.83006,308.6067 q 0,12.71883 -4.10608,18.89464 -4.0727,6.17581 -12.48515,6.17581 -8.14539,0 -12.35162,-6.37611 -4.20623,-6.3761 -4.20623,-18.69434 0,-12.91912 4.0727,-19.02817 4.10608,-6.14242 12.48515,-6.14242 8.17877,0 12.385,6.40948 4.20623,6.40949 4.20623,18.76111 z m -25.20398,0 q 0,9.98144 2.03635,14.25443 2.06973,4.273 6.5764,4.273 4.50667,0 6.5764,-4.33976 2.10311,-4.33976 2.10311,-14.18767 0,-9.81453 -2.10311,-14.18767 -2.06973,-4.40652 -6.5764,-4.40652 -4.50667,0 -6.5764,4.30637 -2.03635,4.30638 -2.03635,14.28782 z" />
      </g>
    </g>
  </g>
</svg>
