<?xml version="1.0" encoding="UTF-8" standalone="no"?>
<!-- Created with Inkscape (http://www.inkscape.org/) -->

<svg
   xmlns:dc="http://purl.org/dc/elements/1.1/"
   xmlns:cc="http://creativecommons.org/ns#"
   xmlns:rdf="http://www.w3.org/1999/02/22-rdf-syntax-ns#"
   xmlns:svg="http://www.w3.org/2000/svg"
   xmlns="http://www.w3.org/2000/svg"
   xmlns:sodipodi="http://sodipodi.sourceforge.net/DTD/sodipodi-0.dtd"
   xmlns:inkscape="http://www.inkscape.org/namespaces/inkscape"
   width="295.35287"
   height="295.35287"
   viewBox="0 0 295.35286 295.3529"
   version="1.1"
   id="svg2216"
   inkscape:version="0.92.3 (2405546, 2018-03-11)"
   sodipodi:docname="scrabble-letter-S.svg">
  <defs
     id="defs2210" />
  <sodipodi:namedview
     id="base"
     pagecolor="#ffffff"
     bordercolor="#666666"
     borderopacity="1.0"
     inkscape:pageopacity="0.0"
     inkscape:pageshadow="2"
     inkscape:zoom="0.69999999"
     inkscape:cx="131.50999"
     inkscape:cy="70.538715"
     inkscape:document-units="px"
     inkscape:current-layer="layer1"
     showgrid="false"
     units="px"
     inkscape:window-width="1280"
     inkscape:window-height="737"
     inkscape:window-x="-8"
     inkscape:window-y="-8"
     inkscape:window-maximized="1"
     fit-margin-top="5"
     fit-margin-left="5"
     fit-margin-bottom="5"
     fit-margin-right="5"
     inkscape:showpageshadow="false" />
  <metadata
     id="metadata2213">
    <rdf:RDF>
      <cc:Work
         rdf:about="">
        <dc:format>image/svg+xml</dc:format>
        <dc:type
           rdf:resource="http://purl.org/dc/dcmitype/StillImage" />
        <dc:title></dc:title>
      </cc:Work>
    </rdf:RDF>
  </metadata>
  <g
     inkscape:label="Layer 1"
     inkscape:groupmode="layer"
     id="layer1"
     transform="translate(85.792198,-28.029976)">
    <g
       id="g23">
      <rect
         ry="9.5535717"
         rx="9.5535717"
         y="33.779976"
         x="-80.042198"
         height="283.85287"
         width="283.85287"
         id="rect842"
         style="opacity:1;fill:#e0d3b2;fill-opacity:1;stroke:#000000;stroke-width:1.5;stroke-linecap:round;stroke-linejoin:round;stroke-miterlimit:4;stroke-dasharray:none;stroke-dashoffset:0;stroke-opacity:1;paint-order:stroke fill markers" />
      <g
         transform="translate(-16,-6)"
         id="text828"
         style="font-style:normal;font-variant:normal;font-weight:bold;font-stretch:normal;font-size:76.53333282px;line-height:1.25;font-family:'Open Sans';-inkscape-font-specification:'Open Sans, Bold';font-variant-ligatures:normal;font-variant-caps:normal;font-variant-numeric:normal;font-feature-settings:normal;text-align:start;letter-spacing:0px;word-spacing:0px;writing-mode:lr-tb;text-anchor:start;fill:#000000;fill-opacity:1;stroke:none"
         aria-label="S">
        <path
           inkscape:connector-curvature="0"
           id="path817"
           style="font-style:normal;font-variant:normal;font-weight:600;font-stretch:normal;font-size:233.33332825px;font-family:'Open Sans';-inkscape-font-specification:'Open Sans Semi-Bold'"
           d="m 115.20455,214.10158 q 0,22.2168 -16.064452,34.86328 -16.064453,12.64649 -44.319661,12.64649 -28.255207,0 -46.256509,-8.77279 v -25.7487 q 11.393229,5.35482 24.153645,8.43099 12.874349,3.07618 23.925781,3.07618 16.178385,0 23.811849,-6.15235 7.747395,-6.15234 7.747395,-16.52018 0,-9.34245 -7.063802,-15.83659 -7.063802,-6.49414 -29.166666,-15.38086 -22.786458,-9.22851 -32.128905,-21.07747 -9.342448,-11.84896 -9.342448,-28.48307 0,-20.84961 14.811198,-32.8125 14.811197,-11.962892 39.762368,-11.962892 23.925781,0 47.623697,10.481772 l -8.65885,22.21679 q -22.2168,-9.34244 -39.64844,-9.34244 -13.216146,0 -20.052083,5.81054 -6.835938,5.69662 -6.835938,15.153 0,6.49414 2.734375,11.16536 2.734375,4.55729 9.000651,8.65886 6.266276,4.10156 22.558594,10.82356 18.343098,7.63347 26.88802,14.24154 8.544921,6.60807 12.532551,14.92513 3.98763,8.31706 3.98763,19.59635 z" />
      </g>
      <g
         id="text836"
         style="font-style:normal;font-variant:normal;font-weight:bold;font-stretch:normal;font-size:68.36787415px;line-height:1.25;font-family:'Open Sans';-inkscape-font-specification:'Open Sans, Bold';font-variant-ligatures:normal;font-variant-caps:normal;font-variant-numeric:normal;font-feature-settings:normal;text-align:start;letter-spacing:0px;word-spacing:0px;writing-mode:lr-tb;text-anchor:start;fill:#000000;fill-opacity:1;stroke:none;stroke-width:0.89330852"
         transform="matrix(1.1194341,0,0,0.89330851,-16,-6)"
         aria-label="1">
        <path
           inkscape:connector-curvature="0"
           id="path820"
           style="font-style:normal;font-variant:normal;font-weight:600;font-stretch:normal;font-family:'Open Sans';-inkscape-font-specification:'Open Sans Semi-Bold';stroke-width:0.89330852"
           d="m 135.9038,330.65695 h -7.84495 v -31.51332 q 0,-5.64168 0.26706,-8.94657 -0.7678,0.80118 -1.90282,1.76928 -1.10163,0.9681 -7.47773,6.14243 l -3.93917,-4.97403 14.35459,-11.28337 h 6.54302 z" />
      </g>
    </g>
  </g>
</svg>
