<?xml version="1.0" encoding="UTF-8" standalone="no"?>
<!-- Created with Inkscape (http://www.inkscape.org/) -->

<svg
   xmlns:dc="http://purl.org/dc/elements/1.1/"
   xmlns:cc="http://creativecommons.org/ns#"
   xmlns:rdf="http://www.w3.org/1999/02/22-rdf-syntax-ns#"
   xmlns:svg="http://www.w3.org/2000/svg"
   xmlns="http://www.w3.org/2000/svg"
   xmlns:sodipodi="http://sodipodi.sourceforge.net/DTD/sodipodi-0.dtd"
   xmlns:inkscape="http://www.inkscape.org/namespaces/inkscape"
   width="295.35287"
   height="295.35287"
   viewBox="0 0 295.35286 295.3529"
   version="1.1"
   id="svg2216"
   inkscape:version="0.92.3 (2405546, 2018-03-11)"
   sodipodi:docname="scrabble-letter-X.svg">
  <defs
     id="defs2210" />
  <sodipodi:namedview
     id="base"
     pagecolor="#ffffff"
     bordercolor="#666666"
     borderopacity="1.0"
     inkscape:pageopacity="0.0"
     inkscape:pageshadow="2"
     inkscape:zoom="0.98994949"
     inkscape:cx="222.59338"
     inkscape:cy="133.08401"
     inkscape:document-units="px"
     inkscape:current-layer="layer1"
     showgrid="false"
     units="px"
     inkscape:window-width="1280"
     inkscape:window-height="737"
     inkscape:window-x="-8"
     inkscape:window-y="-8"
     inkscape:window-maximized="1"
     fit-margin-top="5"
     fit-margin-left="5"
     fit-margin-bottom="5"
     fit-margin-right="5"
     inkscape:showpageshadow="false" />
  <metadata
     id="metadata2213">
    <rdf:RDF>
      <cc:Work
         rdf:about="">
        <dc:format>image/svg+xml</dc:format>
        <dc:type
           rdf:resource="http://purl.org/dc/dcmitype/StillImage" />
        <dc:title />
      </cc:Work>
    </rdf:RDF>
  </metadata>
  <g
     inkscape:label="Layer 1"
     inkscape:groupmode="layer"
     id="layer1"
     transform="translate(85.792198,-28.029976)">
    <g
       id="g822">
      <rect
         ry="9.5982141"
         rx="9.5982141"
         y="33.779976"
         x="-80.042198"
         height="283.85287"
         width="283.85287"
         id="rect842"
         style="opacity:1;fill:#e0d3b2;fill-opacity:1;stroke:#000000;stroke-width:1.5;stroke-linecap:round;stroke-linejoin:round;stroke-miterlimit:4;stroke-dasharray:none;stroke-dashoffset:0;stroke-opacity:1;paint-order:stroke fill markers" />
      <g
         transform="translate(0,-6)"
         id="text828"
         style="font-style:normal;font-variant:normal;font-weight:bold;font-stretch:normal;font-size:76.53333282px;line-height:1.25;font-family:'Open Sans';-inkscape-font-specification:'Open Sans, Bold';font-variant-ligatures:normal;font-variant-caps:normal;font-variant-numeric:normal;font-feature-settings:normal;text-align:start;letter-spacing:0px;word-spacing:0px;writing-mode:lr-tb;text-anchor:start;fill:#000000;fill-opacity:1;stroke:none"
         aria-label="X">
        <path
           inkscape:connector-curvature="0"
           id="path817"
           style="font-style:normal;font-variant:normal;font-weight:600;font-stretch:normal;font-size:233.33332825px;font-family:'Open Sans';-inkscape-font-specification:'Open Sans Semi-Bold'"
           d="M 134.00338,259.3327 H 102.672 L 60.972781,191.20119 18.931766,259.3327 H -10.2349 L 45.02226,172.97203 -6.7029989,92.763696 H 23.60299 L 62.112104,155.76825 100.62122,92.763696 h 29.39453 L 77.948692,173.42776 Z" />
      </g>
      <g
         id="text836"
         style="font-style:normal;font-variant:normal;font-weight:bold;font-stretch:normal;font-size:68.36787415px;line-height:1.25;font-family:'Open Sans';-inkscape-font-specification:'Open Sans, Bold';font-variant-ligatures:normal;font-variant-caps:normal;font-variant-numeric:normal;font-feature-settings:normal;text-align:start;letter-spacing:0px;word-spacing:0px;writing-mode:lr-tb;text-anchor:start;fill:#000000;fill-opacity:1;stroke:none;stroke-width:0.89330852"
         transform="matrix(1.1194341,0,0,0.89330851,0,-6)"
         aria-label="8">
        <path
           inkscape:connector-curvature="0"
           id="path820"
           style="font-style:normal;font-variant:normal;font-weight:600;font-stretch:normal;font-family:'Open Sans';-inkscape-font-specification:'Open Sans Semi-Bold';stroke-width:0.89330852"
           d="m 145.44029,283.45596 q 6.94361,0 10.98292,3.20474 4.03932,3.17136 4.03932,8.5126 0,7.51112 -9.01335,11.95103 5.74184,2.87092 8.1454,6.04228 2.43694,3.17136 2.43694,7.07714 0,6.04228 -4.43991,9.681 -4.4399,3.63872 -12.01779,3.63872 -7.94509,0 -12.31823,-3.40504 -4.37314,-3.40504 -4.37314,-9.64762 0,-4.07269 2.27002,-7.31082 2.30341,-3.27151 7.51112,-5.8086 -4.47329,-2.67062 -6.3761,-5.64168 -1.90282,-2.97107 -1.90282,-6.67655 0,-5.30786 4.17284,-8.44584 4.17285,-3.17136 10.88278,-3.17136 z m -9.04673,36.78779 q 0,3.47181 2.43695,5.40801 2.43694,1.90281 6.60978,1.90281 4.30637,0 6.67655,-1.96958 2.40356,-2.00296 2.40356,-5.40801 0,-2.704 -2.20326,-4.94064 -2.20327,-2.23665 -6.67655,-4.13946 l -0.9681,-0.43398 q -4.40653,1.9362 -6.34273,4.27299 -1.9362,2.30341 -1.9362,5.30786 z m 8.97996,-30.74551 q -3.33827,0 -5.37462,1.66913 -2.03635,1.63576 -2.03635,4.47329 0,1.73591 0.73442,3.1046 0.73442,1.36869 2.1365,2.5037 1.40208,1.10164 4.74035,2.67063 4.00593,-1.76929 5.64169,-3.70549 1.66913,-1.96958 1.66913,-4.57344 0,-2.83753 -2.06973,-4.47329 -2.03635,-1.66913 -5.44139,-1.66913 z" />
      </g>
    </g>
  </g>
</svg>
